<svg width="16" height="12" viewBox="0 0 16 12" fill="none" xmlns="http://www.w3.org/2000/svg">
<path d="M0 12V8.31267C0 7.28841 0.203227 6.25337 0.609681 5.20755C1.02712 4.15094 1.5654 3.16981 2.22451 2.26415C2.89461 1.34771 3.58668 0.592992 4.30072 0L7.72812 1.84367C7.13491 2.79245 6.66255 3.78437 6.31102 4.8194C5.95949 5.84366 5.78922 7.00269 5.80021 8.29649V12H0ZM8.27188 12V8.31267C8.27188 7.28841 8.47511 6.25337 8.88157 5.20755C9.299 4.15094 9.83728 3.16981 10.4964 2.26415C11.1665 1.34771 11.8586 0.592992 12.5726 0L16 1.84367C15.4068 2.79245 14.9344 3.78437 14.5829 4.8194C14.2314 5.84366 14.0611 7.00269 14.0721 8.29649V12H8.27188Z" fill="#873BFF"/>
</svg>
