<svg width="48" height="48" viewBox="0 0 48 48" fill="none" xmlns="http://www.w3.org/2000/svg">
<rect width="48" height="48" rx="24" fill="url(#paint0_linear_12_700)"/>
<rect x="0.5" y="0.5" width="47" height="47" rx="23.5" stroke="white" stroke-opacity="0.25"/>
<path d="M34.4997 24.2567C34.4997 17.8517 29.5297 13.5 23.9997 13.5C18.528 13.5 13.4997 17.7583 13.4997 24.3267C12.7997 24.7233 12.333 25.47 12.333 26.3333V28.6667C12.333 29.95 13.383 31 14.6663 31H15.833V23.8833C15.833 19.3683 19.4847 15.7167 23.9997 15.7167C28.5147 15.7167 32.1663 19.3683 32.1663 23.8833V32.1667H22.833V34.5H32.1663C33.4497 34.5 34.4997 33.45 34.4997 32.1667V30.7433C35.188 30.3817 35.6663 29.67 35.6663 28.83V26.1467C35.6663 25.33 35.188 24.6183 34.4997 24.2567Z" fill="white"/>
<path d="M20.4997 26.3333C21.144 26.3333 21.6663 25.811 21.6663 25.1667C21.6663 24.5223 21.144 24 20.4997 24C19.8553 24 19.333 24.5223 19.333 25.1667C19.333 25.811 19.8553 26.3333 20.4997 26.3333Z" fill="white"/>
<path d="M27.4997 26.3333C28.144 26.3333 28.6663 25.811 28.6663 25.1667C28.6663 24.5223 28.144 24 27.4997 24C26.8553 24 26.333 24.5223 26.333 25.1667C26.333 25.811 26.8553 26.3333 27.4997 26.3333Z" fill="white"/>
<path d="M30.9996 22.8683C30.7214 21.2282 29.8719 19.7393 28.6014 18.6653C27.331 17.5913 25.7215 17.0014 24.0579 17C20.5229 17 16.7196 19.9283 17.0229 24.525C18.4618 23.9367 19.7327 23.0013 20.7221 21.8022C21.7115 20.6032 22.3886 19.1778 22.6929 17.6533C24.2212 20.7217 27.3596 22.8333 30.9996 22.8683Z" fill="white"/>
<defs>
<linearGradient id="paint0_linear_12_700" x1="0" y1="48" x2="48" y2="0" gradientUnits="userSpaceOnUse">
<stop stop-color="#873BFF"/>
<stop offset="1" stop-color="#D2B6FF"/>
</linearGradient>
</defs>
</svg>
