<svg width="48" height="48" viewBox="0 0 48 48" fill="none" xmlns="http://www.w3.org/2000/svg">
<rect width="48" height="48" rx="24" fill="url(#paint0_linear_12_686)"/>
<rect x="0.5" y="0.5" width="47" height="47" rx="23.5" stroke="white" stroke-opacity="0.25"/>
<path d="M19.0414 14.6667C19.0414 14.4346 18.9493 14.2121 18.7852 14.048C18.6211 13.8839 18.3985 13.7917 18.1664 13.7917C17.9344 13.7917 17.7118 13.8839 17.5477 14.048C17.3836 14.2121 17.2914 14.4346 17.2914 14.6667V16.7854C16.4403 16.906 15.6521 17.302 15.047 17.9127C14.442 18.5234 14.0535 19.3153 13.9408 20.1675L13.8393 20.9294C13.8222 21.0577 13.8058 21.1868 13.7903 21.3167C13.7809 21.3975 13.7887 21.4794 13.8133 21.557C13.8379 21.6346 13.8787 21.706 13.9329 21.7667C13.9872 21.8273 14.0537 21.8758 14.128 21.9088C14.2024 21.9418 14.2829 21.9587 14.3643 21.9584H33.6364C33.7178 21.9587 33.7983 21.9418 33.8727 21.9088C33.9471 21.8758 34.0136 21.8273 34.0678 21.7667C34.1221 21.706 34.1628 21.6346 34.1874 21.557C34.212 21.4794 34.2199 21.3975 34.2104 21.3167L34.1614 20.9294L34.0599 20.1675C33.9472 19.3153 33.5587 18.5234 32.9537 17.9127C32.3487 17.302 31.5604 16.906 30.7093 16.7854V14.6667C30.7093 14.4346 30.6171 14.2121 30.453 14.048C30.2889 13.8839 30.0663 13.7917 29.8343 13.7917C29.6022 13.7917 29.3797 13.8839 29.2156 14.048C29.0515 14.2121 28.9593 14.4346 28.9593 14.6667V16.6127C25.6602 16.3194 22.3417 16.3194 19.0426 16.6127L19.0414 14.6667ZM34.4356 24.2637C34.4302 24.1141 34.3667 23.9725 34.2587 23.8689C34.1507 23.7652 34.0066 23.7076 33.8569 23.7084H14.1426C13.9929 23.7076 13.8488 23.7652 13.7408 23.8689C13.6328 23.9725 13.5694 24.1141 13.5639 24.2637C13.495 26.375 13.6239 28.4881 13.9489 30.5754C14.0688 31.3443 14.4406 32.0517 15.0062 32.5864C15.5717 33.1211 16.2988 33.4528 17.0733 33.5294L18.4651 33.667C22.1459 34.0287 25.8536 34.0287 29.5344 33.667L30.9263 33.5294C31.7008 33.4528 32.4279 33.1211 32.9934 32.5864C33.5589 32.0517 33.9308 31.3443 34.0506 30.5754C34.3757 28.4881 34.5046 26.375 34.4356 24.2637Z" fill="white"/>
<defs>
<linearGradient id="paint0_linear_12_686" x1="0" y1="48" x2="48" y2="0" gradientUnits="userSpaceOnUse">
<stop stop-color="#873BFF"/>
<stop offset="1" stop-color="#D2B6FF"/>
</linearGradient>
</defs>
</svg>
