<svg width="48" height="48" viewBox="0 0 48 48" fill="none" xmlns="http://www.w3.org/2000/svg">
<rect width="48" height="48" rx="24" fill="url(#paint0_linear_12_693)"/>
<rect x="0.5" y="0.5" width="47" height="47" rx="23.5" stroke="white" stroke-opacity="0.25"/>
<path d="M26.333 33.3334H21.6663V35.6667H19.333V33.3334H15.833C15.5236 33.3334 15.2268 33.2105 15.0081 32.9917C14.7893 32.7729 14.6663 32.4761 14.6663 32.1667V28.6667H12.333V26.3334H14.6663V21.6667H12.333V19.3334H14.6663V15.8334C14.6663 15.524 14.7893 15.2272 15.0081 15.0084C15.2268 14.7896 15.5236 14.6667 15.833 14.6667H19.333V12.3334H21.6663V14.6667H26.333V12.3334H28.6663V14.6667H32.1663C32.4758 14.6667 32.7725 14.7896 32.9913 15.0084C33.2101 15.2272 33.333 15.524 33.333 15.8334V19.3334H35.6663V21.6667H33.333V26.3334H35.6663V28.6667H33.333V32.1667C33.333 32.4761 33.2101 32.7729 32.9913 32.9917C32.7725 33.2105 32.4758 33.3334 32.1663 33.3334H28.6663V35.6667H26.333V33.3334ZM18.1663 18.1667V22.8334H22.833V18.1667H18.1663Z" fill="white"/>
<defs>
<linearGradient id="paint0_linear_12_693" x1="0" y1="48" x2="48" y2="0" gradientUnits="userSpaceOnUse">
<stop stop-color="#873BFF"/>
<stop offset="1" stop-color="#D2B6FF"/>
</linearGradient>
</defs>
</svg>
