<svg width="48" height="48" viewBox="0 0 48 48" fill="none" xmlns="http://www.w3.org/2000/svg">
<rect width="48" height="48" rx="24" fill="url(#paint0_linear_12_717)"/>
<rect x="0.5" y="0.5" width="47" height="47" rx="23.5" stroke="white" stroke-opacity="0.25"/>
<path d="M22.2208 35.6666C21.6763 35.6666 21.1661 35.55 20.6901 35.3166C20.2141 35.0833 19.8104 34.7527 19.4791 34.325L13.6166 26.8875C13.461 26.7125 13.393 26.5036 13.4124 26.261C13.4319 26.0183 13.5194 25.8188 13.6749 25.6625C14.0638 25.2541 14.5305 25.0111 15.0749 24.9333C15.6194 24.8555 16.1249 24.9625 16.5916 25.2541L18.7499 26.5666V17C18.7499 16.6694 18.8619 16.3925 19.0859 16.1693C19.3099 15.9461 19.5868 15.8341 19.9166 15.8333C20.2464 15.8325 20.5283 15.9445 20.7624 16.1693C20.9965 16.3941 21.1132 16.671 21.1124 17V22.8333H29.8333C30.8055 22.8333 31.6319 23.1736 32.3124 23.8541C32.993 24.5347 33.3333 25.3611 33.3333 26.3333V31C33.3333 32.2833 32.8763 33.3819 31.9624 34.2958C31.0485 35.2097 29.9499 35.6666 28.6666 35.6666H22.2208ZM23.9708 20.5C23.6402 20.5 23.3633 20.388 23.1401 20.164C22.9169 19.94 22.8049 19.6631 22.8041 19.3333C22.8041 19.2944 22.8527 19.1 22.9499 18.75C23.1055 18.4777 23.2221 18.2008 23.2999 17.9193C23.3777 17.6377 23.4166 17.3313 23.4166 17C23.4166 16.0277 23.0763 15.2013 22.3958 14.5208C21.7152 13.8402 20.8888 13.5 19.9166 13.5C18.9444 13.5 18.118 13.8402 17.4374 14.5208C16.7569 15.2013 16.4166 16.0277 16.4166 17C16.4166 17.3305 16.4555 17.637 16.5333 17.9193C16.611 18.2016 16.7277 18.4785 16.8833 18.75C16.9416 18.8472 16.9805 18.9444 16.9999 19.0416C17.0194 19.1388 17.0291 19.2361 17.0291 19.3333C17.0291 19.6638 16.9221 19.9411 16.7083 20.1651C16.4944 20.3891 16.2221 20.5007 15.8916 20.5C15.6777 20.5 15.4786 20.4416 15.2943 20.325C15.1099 20.2083 14.9688 20.0625 14.8708 19.8875C14.618 19.4597 14.4235 19.0027 14.2874 18.5166C14.1513 18.0305 14.0833 17.525 14.0833 17C14.0833 15.3861 14.6522 14.0106 15.7901 12.8735C16.928 11.7363 18.3035 11.1674 19.9166 11.1666C21.5297 11.1658 22.9056 11.7348 24.0443 12.8735C25.1829 14.0121 25.7515 15.3876 25.7499 17C25.7499 17.525 25.6819 18.0305 25.5458 18.5166C25.4096 19.0027 25.2152 19.4597 24.9624 19.8875C24.8652 20.0625 24.7291 20.2083 24.5541 20.325C24.3791 20.4416 24.1846 20.5 23.9708 20.5Z" fill="white"/>
<defs>
<linearGradient id="paint0_linear_12_717" x1="0" y1="48" x2="48" y2="0" gradientUnits="userSpaceOnUse">
<stop stop-color="#873BFF"/>
<stop offset="1" stop-color="#D2B6FF"/>
</linearGradient>
</defs>
</svg>
