<svg width="127" height="55" viewBox="0 0 127 55" fill="none" xmlns="http://www.w3.org/2000/svg">
<rect x="73" y="1" width="53" height="53" rx="14" stroke="#0C0C0C" stroke-width="2"/>
<path d="M113.047 2H85.9531C79.3516 2 74 7.3516 74 13.9531V41.0469C74 47.6484 79.3516 53 85.9531 53H113.047C119.648 53 125 47.6484 125 41.0469V13.9531C125 7.3516 119.648 2 113.047 2Z" fill="#007ACC"/>
<path d="M85.2779 27.6695L85.2617 29.7581H91.8997V48.62H96.5951V29.7581H103.233V27.71C103.233 26.5766 103.209 25.6295 103.176 25.6052C103.152 25.5729 99.1126 25.5566 94.215 25.5648L85.3022 25.5891L85.2779 27.6695ZM115.152 25.5297C116.447 25.8536 117.435 26.4284 118.341 27.3673C118.811 27.8693 119.507 28.7842 119.564 29.0027C119.58 29.0674 117.362 30.557 116.018 31.3907C115.97 31.4232 115.775 31.2126 115.557 30.8889C114.901 29.9336 114.213 29.5207 113.16 29.448C111.614 29.3426 110.619 30.1522 110.627 31.5041C110.627 31.9007 110.683 32.1354 110.845 32.4593C111.185 33.1636 111.817 33.5845 113.8 34.4426C117.451 36.0132 119.013 37.0493 119.985 38.5226C121.07 40.1659 121.312 42.7888 120.576 44.7398C119.766 46.8607 117.759 48.3016 114.933 48.7793C114.059 48.9331 111.987 48.9088 111.048 48.7389C108.999 48.3745 107.057 47.3627 105.859 46.0351C105.389 45.5169 104.474 44.165 104.531 44.0678C104.555 44.0355 104.766 43.9061 105 43.7684C105.227 43.6389 106.085 43.145 106.895 42.6755L108.36 41.8254L108.668 42.2788C109.097 42.9345 110.036 43.8331 110.602 44.1326C112.229 44.9908 114.464 44.8693 115.565 43.8817C116.034 43.4526 116.229 43.0074 116.229 42.3517C116.229 41.7607 116.156 41.5017 115.848 41.0564C115.451 40.4899 114.642 40.0121 112.343 39.0164C109.712 37.8831 108.579 37.1788 107.542 36.0616C106.943 35.4142 106.377 34.3778 106.142 33.5116C105.948 32.7912 105.899 30.9859 106.053 30.2574C106.595 27.7155 108.514 25.9427 111.282 25.4164C112.181 25.2464 114.269 25.3112 115.152 25.5297Z" fill="white"/>
<g clip-path="url(#clip0_2031_2)">
<path d="M77.0469 2H49.9531C43.3516 2 38 7.3516 38 13.9531V41.0469C38 47.6484 43.3516 53 49.9531 53H77.0469C83.6484 53 89 47.6484 89 41.0469V13.9531C89 7.3516 83.6484 2 77.0469 2Z" fill="#242938"/>
<path d="M61.8819 8.19892C62.8619 7.63812 64.1381 7.63553 65.117 8.19892C70.0421 10.982 74.9688 13.7605 79.8931 16.5452C80.8195 17.0669 81.4388 18.0977 81.4295 19.1649V35.9082C81.4364 37.0197 80.7557 38.0752 79.7786 38.585C74.8696 41.3527 69.963 44.1236 65.0549 46.8914C64.055 47.4631 62.7531 47.4191 61.7841 46.8003C60.3125 45.9473 58.8383 45.0982 57.3664 44.246C57.0656 44.0667 56.7265 43.924 56.5142 43.6324C56.702 43.3794 57.0377 43.3479 57.3105 43.2373C57.9247 43.0419 58.489 42.7283 59.0532 42.4241C59.1961 42.3265 59.3702 42.3639 59.507 42.4512C60.7655 43.1728 62.013 43.9154 63.2757 44.63C63.545 44.7856 63.8177 44.579 64.048 44.4508C68.8651 41.728 73.6882 39.0159 78.5047 36.2923C78.6832 36.2065 78.7819 36.017 78.7673 35.8216C78.7707 30.2983 78.7681 24.7741 78.7691 19.2506C78.7894 19.029 78.6611 18.825 78.4605 18.7342C73.5687 15.9792 68.6791 13.2202 63.7881 10.4646C63.7033 10.4064 63.603 10.3752 63.5001 10.375C63.3973 10.3748 63.2969 10.4057 63.2119 10.4636C58.3207 13.2202 53.4323 15.982 48.541 18.7366C48.3412 18.8276 48.2072 19.0282 48.2309 19.2506C48.2319 24.7741 48.2309 30.2983 48.2309 35.8224C48.2223 35.9178 48.2433 36.0136 48.2909 36.0967C48.3384 36.1799 48.4104 36.2464 48.497 36.2874C49.8021 37.0275 51.109 37.7624 52.4151 38.5001C53.151 38.8959 54.0542 39.1314 54.865 38.828C55.5802 38.5714 56.0817 37.8413 56.0681 37.0818C56.0749 31.5908 56.0647 26.0989 56.0731 20.6085C56.0552 20.3648 56.2865 20.1634 56.5235 20.1865C57.1507 20.1821 57.7786 20.1779 58.4058 20.1881C58.6675 20.1821 58.8476 20.4447 58.8154 20.6901C58.8128 26.2161 58.8221 31.742 58.8112 37.2677C58.8128 38.7405 58.2077 40.3431 56.8455 41.0636C55.1675 41.9328 53.0932 41.7485 51.4353 40.915C50.0001 40.1986 48.6303 39.3531 47.2206 38.5858C46.2409 38.0787 45.5635 37.0191 45.5705 35.9085V19.1649C45.5601 18.0756 46.2044 17.0261 47.1593 16.5119C52.0674 13.7422 56.9748 10.97 61.8819 8.19892Z" fill="#81CD39"/>
<path d="M66.1639 19.7973C68.3045 19.6594 70.5962 19.7156 72.5224 20.7703C74.014 21.5783 74.8407 23.2745 74.867 24.9314C74.8254 25.1547 74.5917 25.278 74.3783 25.2627C73.7574 25.2619 73.136 25.2712 72.515 25.2585C72.2515 25.2686 72.0985 25.0258 72.0654 24.7929C71.8869 24 71.4544 23.2149 70.7083 22.8324C69.5628 22.259 68.2348 22.2879 66.9857 22.2999C66.0739 22.3481 65.0933 22.4272 64.3208 22.9633C63.7277 23.3695 63.5476 24.1895 63.7592 24.8499C63.9588 25.324 64.506 25.477 64.9541 25.6181C67.5338 26.2928 70.2675 26.2255 72.7979 27.1134C73.8456 27.4754 74.8704 28.1792 75.229 29.2761C75.6982 30.7464 75.4926 32.5035 74.4465 33.6836C73.5982 34.6548 72.3628 35.1836 71.1307 35.4706C69.4915 35.8362 67.7904 35.8456 66.1257 35.6832C64.5604 35.5047 62.9314 35.0935 61.7232 34.0271C60.6898 33.1298 60.1852 31.7317 60.2352 30.3826C60.2471 30.1547 60.4741 29.9957 60.6924 30.0144C61.3177 30.0094 61.9433 30.0076 62.5686 30.0154C62.8187 29.9975 63.0037 30.2134 63.0167 30.4489C63.1318 31.2042 63.4157 31.997 64.0745 32.4447C65.3456 33.2649 66.9407 33.2087 68.3962 33.2316C69.6021 33.1782 70.9558 33.1621 71.9397 32.365C72.4589 31.9104 72.6127 31.1498 72.4724 30.4955C72.3204 29.9431 71.7425 29.6857 71.2462 29.5174C68.6996 28.7119 65.9352 29.0042 63.4133 28.0932C62.3893 27.7314 61.3992 27.0473 61.006 25.9954C60.4571 24.5066 60.7085 22.665 61.8642 21.5249C62.991 20.3904 64.6174 19.9535 66.1639 19.7973Z" fill="#81CD39"/>
</g>
<rect x="37" y="1" width="53" height="53" rx="14" stroke="#0C0C0C" stroke-width="2"/>
<g clip-path="url(#clip1_2031_2)">
<path d="M41.0469 2H13.9531C7.3516 2 2 7.3516 2 13.9531V41.0469C2 47.6484 7.3516 53 13.9531 53H41.0469C47.6484 53 53 47.6484 53 41.0469V13.9531C53 7.3516 47.6484 2 41.0469 2Z" fill="#242938"/>
<path d="M27.5003 31.2755C29.553 31.2755 31.2169 29.6115 31.2169 27.5589C31.2169 25.5064 29.553 23.8423 27.5003 23.8423C25.4475 23.8423 23.7837 25.5064 23.7837 27.5589C23.7837 29.6115 25.4477 31.2755 27.5003 31.2755Z" fill="#00D8FF"/>
<path d="M27.5004 20.002C32.4904 20.002 37.1261 20.7179 40.6213 21.9214C44.8326 23.3711 47.4219 25.5687 47.4219 27.5587C47.4219 29.6324 44.6778 31.967 40.1554 33.4654C36.7364 34.5981 32.2372 35.1894 27.5004 35.1894C22.6438 35.1894 18.0449 34.6344 14.5872 33.4528C10.2128 31.9577 7.57812 29.5929 7.57812 27.5587C7.57812 25.5849 10.0504 23.4042 14.2025 21.9567C17.7108 20.7335 22.4608 20.002 27.4996 20.002H27.5004Z" stroke="#00D8FF" stroke-width="1.77524"/>
<path d="M20.9221 23.8021C23.4151 19.4795 26.351 15.8214 29.1397 13.3949C32.4993 10.471 35.6968 9.32587 37.4204 10.3198C39.2168 11.3557 39.8684 14.8994 38.9072 19.5655C38.181 23.0931 36.445 27.2858 34.0785 31.3893C31.6522 35.5964 28.8741 39.3031 26.1235 41.7073C22.643 44.7498 19.278 45.8508 17.5159 44.8346C15.806 43.8493 15.1521 40.6178 15.9725 36.2977C16.6656 32.6474 18.405 28.1672 20.9213 23.8021H20.9221Z" stroke="#00D8FF" stroke-width="1.77524"/>
<path d="M20.9283 31.4005C18.4283 27.0826 16.7262 22.7114 16.0158 19.0836C15.1605 14.7125 15.7652 11.3706 17.4874 10.3737C19.2822 9.33461 22.6775 10.5399 26.2399 13.7031C28.9333 16.0945 31.6991 19.6918 34.0724 23.7913C36.5056 27.9944 38.3293 32.2527 39.0387 35.8363C39.9364 40.3713 39.2098 43.8363 37.4493 44.8553C35.7412 45.8442 32.6153 44.7973 29.2821 41.929C26.466 39.5057 23.453 35.7614 20.9283 31.4005Z" stroke="#00D8FF" stroke-width="1.77524"/>
</g>
<rect x="1" y="1" width="53" height="53" rx="14" stroke="#0C0C0C" stroke-width="2"/>
<defs>
<clipPath id="clip0_2031_2">
<rect x="38" y="2" width="51" height="51" rx="13" fill="white"/>
</clipPath>
<clipPath id="clip1_2031_2">
<rect x="2" y="2" width="51" height="51" rx="13" fill="white"/>
</clipPath>
</defs>
</svg>
