<svg width="48" height="48" viewBox="0 0 48 48" fill="none" xmlns="http://www.w3.org/2000/svg">
<path d="M21.6 31.4737V26.6316H26.4V31.4737H21.6ZM19.2 9.68421H28.8V4.8421H19.2V9.68421ZM4.8 46C3.48 46 2.3504 45.5263 1.4112 44.5788C0.472 43.6314 0.0016 42.4911 0 41.1579V31.4737H16.8V33.8947C16.8 34.5807 17.0304 35.1561 17.4912 35.6209C17.952 36.0858 18.5216 36.3174 19.2 36.3158H28.8C29.48 36.3158 30.0504 36.0834 30.5112 35.6185C30.972 35.1537 31.2016 34.5791 31.2 33.8947V31.4737H48V41.1579C48 42.4895 47.5304 43.6298 46.5912 44.5788C45.652 45.5279 44.5216 46.0016 43.2 46H4.8ZM0 26.6316V14.5263C0 13.1947 0.4704 12.0552 1.4112 11.1078C2.352 10.1603 3.4816 9.68582 4.8 9.68421H14.4V4.8421C14.4 3.51053 14.8704 2.37102 15.8112 1.42358C16.752 0.47614 17.8816 0.00161403 19.2 0H28.8C30.12 0 31.2504 0.474526 32.1912 1.42358C33.132 2.37263 33.6016 3.51214 33.6 4.8421V9.68421H43.2C44.52 9.68421 45.6504 10.1587 46.5912 11.1078C47.532 12.0568 48.0016 13.1964 48 14.5263V26.6316H31.2V24.2105C31.2 23.5246 30.9696 22.95 30.5088 22.4867C30.048 22.0235 29.4784 21.7911 28.8 21.7895H19.2C18.52 21.7895 17.9504 22.0219 17.4912 22.4867C17.032 22.9516 16.8016 23.5262 16.8 24.2105V26.6316H0Z" fill="#873BFF"/>
</svg>
