<svg width="48" height="48" viewBox="0 0 48 48" fill="none" xmlns="http://www.w3.org/2000/svg">
<g clip-path="url(#clip0_12_613)">
<path d="M45.5935 21.4364V14.2684C45.5935 12.9904 45.0879 11.7647 44.1878 10.861C43.2878 9.95735 42.0671 9.44965 40.7942 9.44965H26.3962V6.28853C27.1281 5.62835 27.5961 4.67905 27.5961 3.61409C27.5961 2.65558 27.2168 1.73632 26.5418 1.05854C25.8668 0.38077 24.9512 0 23.9966 0C23.0419 0 22.1264 0.38077 21.4514 1.05854C20.7763 1.73632 20.3971 2.65558 20.3971 3.61409C20.3971 4.67905 20.865 5.62835 21.5969 6.28853V9.44965H7.19898C5.92612 9.44965 4.70539 9.95735 3.80535 10.861C2.9053 11.7647 2.39966 12.9904 2.39966 14.2684V21.4918L2.22688 21.5039C1.6221 21.5477 1.05627 21.8198 0.643151 22.2654C0.230028 22.7111 0.000245353 23.2972 0 23.906V28.7248C0 29.3638 0.25282 29.9767 0.702844 30.4285C1.15287 30.8804 1.76323 31.1342 2.39966 31.1342V43.1812C2.39966 44.4592 2.9053 45.6849 3.80535 46.5886C4.70539 47.4923 5.92612 48 7.19898 48H40.7942C42.0671 48 43.2878 47.4923 44.1878 46.5886C45.0879 45.6849 45.5935 44.4592 45.5935 43.1812V31.1342C46.2299 31.1342 46.8403 30.8804 47.2903 30.4285C47.7403 29.9767 47.9932 29.3638 47.9932 28.7248V24.0554C48.0213 23.6815 47.9622 23.3061 47.8204 22.9591C47.3357 21.7834 46.2966 21.5015 45.5935 21.4364ZM11.9983 23.906C11.9983 21.2461 13.6109 19.0872 15.5978 19.0872C17.5847 19.0872 19.1973 21.2461 19.1973 23.906C19.1973 26.566 17.5847 28.7248 15.5978 28.7248C13.6109 28.7248 11.9983 26.566 11.9983 23.906ZM33.5904 38.3624C31.1884 38.3552 14.398 38.3624 14.398 38.3624V33.5436C14.398 33.5436 31.198 33.5388 33.6 33.5436L33.5904 38.3624ZM32.3954 28.7248C30.4085 28.7248 28.7959 26.566 28.7959 23.906C28.7959 21.2461 30.4085 19.0872 32.3954 19.0872C34.3823 19.0872 35.9949 21.2461 35.9949 23.906C35.9949 26.566 34.3823 28.7248 32.3954 28.7248Z" fill="#873BFF"/>
</g>
<defs>
<clipPath id="clip0_12_613">
<rect width="48" height="48" fill="white"/>
</clipPath>
</defs>
</svg>
