<svg width="48" height="48" viewBox="0 0 48 48" fill="none" xmlns="http://www.w3.org/2000/svg">
<path d="M2.4 2H45.6C46.2365 2 46.847 2.25754 47.2971 2.71596C47.7471 3.17438 48 3.79614 48 4.44444V43.5556C48 44.2039 47.7471 44.8256 47.2971 45.284C46.847 45.7425 46.2365 46 45.6 46H2.4C1.76348 46 1.15303 45.7425 0.702944 45.284C0.252856 44.8256 0 44.2039 0 43.5556V4.44444C0 3.79614 0.252856 3.17438 0.702944 2.71596C1.15303 2.25754 1.76348 2 2.4 2ZM34.716 32.6436L43.2 24L34.716 15.3564L31.32 18.8178L36.4128 24L31.32 29.1847L34.716 32.6436ZM11.5872 24L16.68 18.8153L13.2864 15.3564L4.8 24L13.2864 32.6436L16.68 29.1822L11.5872 24ZM22.1856 36.2222L30.9216 11.7778H25.8144L17.0784 36.2222H22.1856Z" fill="#873BFF"/>
</svg>
