<svg width="298" height="296" viewBox="0 0 298 296" fill="none" xmlns="http://www.w3.org/2000/svg">
<path d="M292.348 169.608C290.34 173.178 287.842 176.456 284.927 179.344L273.659 190.567L252.248 211.83L180.552 283.019C172.184 291.331 160.835 296 149.001 296C137.167 296 125.818 291.331 117.45 283.019L43.4665 209.527L22.8201 189.018L13.0811 179.344C8.93422 175.23 5.64444 170.345 3.39989 164.966C1.15533 159.589 0 153.825 0 148.003C0 142.182 1.15533 136.417 3.39989 131.039C5.64444 125.661 8.93422 120.776 13.0811 116.662L117.45 12.981C125.818 4.66938 137.167 0 149.001 0C160.835 0 172.184 4.66938 180.552 12.981L284.927 116.662C291.795 123.484 296.234 132.344 297.574 141.899C298.913 151.454 297.078 161.181 292.348 169.608Z" fill="black"/>
<path d="M209.072 185.123L161.793 232.116C158.002 235.883 152.861 238 147.501 238C142.141 238 137 235.883 133.209 232.116L85.9301 185.123C84.0504 183.259 82.559 181.045 81.5414 178.608C80.5238 176.17 80 173.557 80 170.918C80 168.279 80.5238 165.666 81.5414 163.228C82.559 160.79 84.0504 158.576 85.9301 156.713L91.034 151.64L100.732 142L134.245 175.31C138.036 179.077 143.177 181.193 148.537 181.193C153.897 181.193 159.038 179.077 162.828 175.31L195.306 143.029L209.072 156.724C210.951 158.588 212.442 160.802 213.459 163.24C214.476 165.677 215 168.29 215 170.929C215 173.568 214.476 176.181 213.459 178.618C212.442 181.056 210.951 183.27 209.072 185.135V185.123Z" fill="#873BFF"/>
<path d="M213.437 162.607C212.528 164.203 211.395 165.667 210.072 166.956L162.795 213.209C159.004 216.917 153.863 219 148.503 219C143.142 219 138.001 216.917 134.211 213.209L86.9303 166.956C85.0505 165.122 83.559 162.943 82.5414 160.543C81.5238 158.144 81 155.572 81 152.975C81 150.377 81.5238 147.805 82.5414 145.406C83.559 143.007 85.0505 140.828 86.9303 138.993L92.0342 134L101.387 143.149L134.9 175.935C138.691 179.643 143.832 181.726 149.192 181.726C154.553 181.726 159.693 179.643 163.484 175.935L195.962 144.163L205.661 134.691L210.072 139.007C213.186 142.048 215.199 145.999 215.807 150.261C216.414 154.524 215.582 158.863 213.437 162.621V162.607Z" fill="#AF7CFF"/>
<path d="M213.448 143.354C212.537 144.955 211.405 146.423 210.084 147.719L204.979 152.731L162.798 194.184C159.007 197.908 153.866 200 148.504 200C143.143 200 138.002 197.908 134.211 194.184L86.9283 147.719C83.8138 144.665 81.7999 140.696 81.193 136.414C80.5861 132.133 81.4195 127.774 83.5663 124C84.531 125.849 85.7863 127.537 87.286 129.001L91.698 133.335L101.052 142.525L134.569 175.452C138.36 179.176 143.501 181.268 148.862 181.268C154.223 181.268 159.365 179.176 163.155 175.452L195.625 143.542L205.325 134.03L210.429 129.015C211.751 127.721 212.882 126.252 213.792 124.652C215.299 127.558 216.056 130.784 215.997 134.045C215.937 137.306 215.062 140.503 213.448 143.354Z" fill="#D7BEFF"/>
<path d="M213.44 124.782C212.53 126.398 211.398 127.882 210.077 129.19L204.973 134.27L195.274 143.896L162.794 176.124C159.003 179.886 153.862 182 148.5 182C143.139 182 137.998 179.886 134.207 176.124L100.691 142.854L91.3379 133.569L86.926 129.19C85.0474 127.327 83.557 125.116 82.5402 122.681C81.5234 120.246 81 117.637 81 115.001C81 112.366 81.5234 109.757 82.5402 107.322C83.557 104.887 85.0474 102.676 86.926 100.813L134.207 53.8766C137.998 50.1138 143.139 48 148.5 48C153.862 48 159.003 50.1138 162.794 53.8766L210.077 100.813C213.189 103.901 215.2 107.912 215.807 112.238C216.414 116.563 215.582 120.967 213.44 124.782Z" fill="white"/>
</svg>
