<svg width="110" height="30" viewBox="0 0 110 30" fill="none" xmlns="http://www.w3.org/2000/svg">
<g clip-path="url(#clip0_72_671)">
<path d="M20.2722 21.6932L12.8464 29.0755C12.2511 29.6674 11.4437 29.9999 10.6018 29.9999C9.75991 29.9999 8.95247 29.6674 8.35712 29.0755L0.931391 21.6932C0.636152 21.4003 0.401914 21.0525 0.24209 20.6696C0.082267 20.2866 0 19.8761 0 19.4615C0 19.047 0.082267 18.6365 0.24209 18.2536C0.401914 17.8706 0.636152 17.5228 0.931391 17.23L1.73301 16.433L3.25626 14.9187L8.51978 20.1515C9.11513 20.7433 9.92257 21.0758 10.7644 21.0758C11.6063 21.0758 12.4137 20.7433 13.0091 20.1515L18.11 15.0804L20.2722 17.2318C20.5673 17.5247 20.8014 17.8725 20.9612 18.2554C21.121 18.6383 21.2032 19.0488 21.2032 19.4633C21.2032 19.8779 21.121 20.2884 20.9612 20.6713C20.8014 21.0543 20.5673 21.4021 20.2722 21.695V21.6932Z" fill="#873BFF"/>
<path d="M20.8551 18.0251C20.7123 18.2799 20.5344 18.5136 20.3267 18.7194L12.9013 26.1018C12.306 26.6936 11.4986 27.0261 10.6567 27.0261C9.81485 27.0261 9.00739 26.6936 8.41206 26.1018L0.986324 18.7194C0.691085 18.4266 0.456845 18.0788 0.297021 17.6958C0.137198 17.3129 0.0549316 16.9024 0.0549316 16.4878C0.0549316 16.0732 0.137198 15.6626 0.297021 15.2798C0.456845 14.8968 0.691085 14.549 0.986324 14.2562L1.78794 13.4592L3.25682 14.9196L8.52034 20.1524C9.11569 20.7443 9.92313 21.0767 10.765 21.0767C11.6069 21.0767 12.4143 20.7443 13.0096 20.1524L18.1106 15.0813L19.6338 13.5696L20.3267 14.2584C20.8157 14.7437 21.1319 15.3744 21.2273 16.0547C21.3226 16.735 21.192 17.4277 20.8551 18.0274V18.0251Z" fill="#AF7CFF"/>
<path d="M20.9096 15.0509C20.7665 15.3053 20.5887 15.5388 20.3812 15.7446L19.5795 16.5411L12.9554 23.1288C12.3601 23.7207 11.5527 24.0531 10.7108 24.0531C9.86885 24.0531 9.06147 23.7207 8.46613 23.1288L1.04084 15.7446C0.551739 15.2594 0.235476 14.6285 0.140172 13.9481C0.0448664 13.2677 0.175738 12.5749 0.512873 11.9752C0.664378 12.269 0.861509 12.5373 1.09701 12.7699L1.78989 13.4588L3.25877 14.9192L8.52229 20.1519C9.11763 20.7437 9.9251 21.0762 10.7669 21.0762C11.6089 21.0762 12.4163 20.7437 13.0116 20.1519L18.1106 15.0808L19.6339 13.5692L20.4355 12.7722C20.643 12.5665 20.8206 12.3332 20.9635 12.0789C21.2003 12.5407 21.3192 13.0533 21.3098 13.5716C21.3005 14.0898 21.163 14.5979 20.9096 15.0509Z" fill="#D7BEFF"/>
<path d="M20.9616 12.0767C20.8187 12.331 20.6409 12.5643 20.4335 12.77L19.632 13.5691L18.1087 15.0831L13.0079 20.152C12.4125 20.7438 11.6051 21.0762 10.7632 21.0762C9.92127 21.0762 9.11387 20.7438 8.51853 20.152L3.255 14.9191L1.78612 13.4588L1.09325 12.77C0.798218 12.477 0.564169 12.1292 0.404481 11.7462C0.244793 11.3634 0.162598 10.9529 0.162598 10.5384C0.162598 10.1239 0.244793 9.71347 0.404481 9.33053C0.564169 8.94761 0.798218 8.59975 1.09325 8.30684L8.51853 0.924413C9.11387 0.332596 9.92127 0.00012207 10.7632 0.00012207C11.6051 0.00012207 12.4125 0.332596 13.0079 0.924413L20.4335 8.30684C20.9222 8.79255 21.238 9.4234 21.3333 10.1037C21.4286 10.7841 21.298 11.4767 20.9616 12.0767Z" fill="#333333"/>
<path d="M41.5737 21.0106L41.5562 13.7979L37.9979 19.7392H36.7371L33.1958 13.9516V21.0096H30.5681V8.98853H32.8827L37.4084 16.4589L41.8649 8.98853H44.1623L44.1969 21.0096L41.5737 21.0106Z" fill="#333333"/>
<path d="M45.978 20.1514L46.8767 18.2306C47.7057 18.7626 48.9665 19.1239 50.1065 19.1239C51.3503 19.1239 51.8166 18.7974 51.8166 18.2823C51.8166 16.7711 46.2026 18.3167 46.2026 14.6247C46.2026 12.8727 47.792 11.6361 50.5041 11.6361C51.7821 11.6361 53.2002 11.9282 54.0795 12.4433L53.1809 14.3495C52.3646 13.8908 51.4412 13.654 50.5037 13.6629C49.2946 13.6629 48.776 14.0403 48.776 14.5215C48.776 16.1015 54.39 14.5728 54.39 18.2135C54.39 19.9312 52.7836 21.1502 50.0027 21.1502C48.43 21.1476 46.8412 20.7183 45.978 20.1514Z" fill="#333333"/>
<path d="M60.038 17.3873L58.7426 18.6581V21.0105H56.0466V8.26843H58.7426V15.4811L62.681 11.7733H65.8942L62.0246 15.6888L66.2398 21.0123H62.9749L60.038 17.3873Z" fill="#333333"/>
<path d="M80.3416 8.98987V21.011H77.5431V16.0824H72.05V21.011H69.2515V8.98987H72.05V13.7295H77.5431V8.98987H80.3416Z" fill="#333333"/>
<path d="M82.3303 16.3911C82.3303 13.609 84.4893 11.634 87.4433 11.634C90.3972 11.634 92.5392 13.609 92.5392 16.3911C92.5392 19.1732 90.3972 21.1482 87.4433 21.1482C84.4893 21.1482 82.3303 19.1732 82.3303 16.3911ZM89.8099 16.3911C89.8099 14.7941 88.7903 13.8323 87.4433 13.8323C86.0962 13.8323 85.0596 14.7941 85.0596 16.3911C85.0596 17.9881 86.0957 18.9499 87.4433 18.9499C88.7908 18.9499 89.8086 17.9881 89.8086 16.3911H89.8099Z" fill="#333333"/>
<path d="M93.4346 20.1514L94.333 18.2306C95.1622 18.7626 96.4238 19.1239 97.5638 19.1239C98.8076 19.1239 99.2736 18.7974 99.2736 18.2823C99.2736 16.7711 93.6601 18.3167 93.6601 14.6247C93.6601 12.8727 95.2493 11.6361 97.9606 11.6361C99.239 11.6361 100.657 11.9282 101.537 12.4433L100.638 14.3495C99.8211 13.8907 98.8983 13.6539 97.9606 13.6629C96.7514 13.6629 96.2329 14.0403 96.2329 14.5215C96.2329 16.1015 101.847 14.5728 101.847 18.2135C101.847 19.9312 100.24 21.1502 97.4599 21.1502C95.8876 21.1476 94.2984 20.7183 93.4346 20.1514Z" fill="#333333"/>
<path d="M109.501 20.5636C108.947 20.9586 108.136 21.1475 107.306 21.1475C105.113 21.1475 103.835 20.0308 103.835 17.8329V14.0358H102.401V11.9751H103.835V9.72681H106.53V11.9764H108.845V14.0372H106.53V17.7985C106.53 18.5883 106.962 19.0176 107.688 19.0176C108.085 19.0176 108.482 18.8974 108.775 18.6741L109.501 20.5636Z" fill="#333333"/>
</g>
<defs>
<clipPath id="clip0_72_671">
<rect width="109.5" height="30" fill="white"/>
</clipPath>
</defs>
</svg>
