<svg width="48" height="48" viewBox="0 0 48 48" fill="none" xmlns="http://www.w3.org/2000/svg">
<rect width="48" height="48" rx="24" fill="url(#paint0_linear_72_840)"/>
<rect x="0.5" y="0.5" width="47" height="47" rx="23.5" stroke="white" stroke-opacity="0.25"/>
<path d="M26.3333 33.3334H21.6666V35.6667H19.3333V33.3334H15.8333C15.5238 33.3334 15.2271 33.2105 15.0083 32.9917C14.7895 32.7729 14.6666 32.4761 14.6666 32.1667V28.6667H12.3333V26.3334H14.6666V21.6667H12.3333V19.3334H14.6666V15.8334C14.6666 15.524 14.7895 15.2272 15.0083 15.0084C15.2271 14.7896 15.5238 14.6667 15.8333 14.6667H19.3333V12.3334H21.6666V14.6667H26.3333V12.3334H28.6666V14.6667H32.1666C32.476 14.6667 32.7728 14.7896 32.9915 15.0084C33.2103 15.2272 33.3333 15.524 33.3333 15.8334V19.3334H35.6666V21.6667H33.3333V26.3334H35.6666V28.6667H33.3333V32.1667C33.3333 32.4761 33.2103 32.7729 32.9915 32.9917C32.7728 33.2105 32.476 33.3334 32.1666 33.3334H28.6666V35.6667H26.3333V33.3334ZM18.1666 18.1667V22.8334H22.8333V18.1667H18.1666Z" fill="white"/>
<defs>
<linearGradient id="paint0_linear_72_840" x1="0" y1="48" x2="48" y2="0" gradientUnits="userSpaceOnUse">
<stop stop-color="#873BFF"/>
<stop offset="1" stop-color="#D2B6FF"/>
</linearGradient>
</defs>
</svg>
