<svg width="48" height="48" viewBox="0 0 48 48" fill="none" xmlns="http://www.w3.org/2000/svg">
<rect width="48" height="48" rx="24" fill="url(#paint0_linear_72_769)"/>
<rect x="0.5" y="0.5" width="47" height="47" rx="23.5" stroke="white" stroke-opacity="0.25"/>
<path d="M23.125 12.4185C22.418 12.5504 21.5873 12.835 20.311 13.2725L19.6425 13.5C16.1343 14.7017 14.3808 15.3014 13.941 15.929C13.5093 16.5427 13.5 18.3417 13.5 21.9117L23.125 18.7034V12.4185ZM23.125 20.5467L13.5 23.755V23.9895C13.5 30.5672 18.4455 33.7592 21.5488 35.1149C22.1438 35.375 22.5288 35.543 23.125 35.6189V20.5467ZM24.875 35.62V20.5467L34.5 23.755V23.9895C34.5 30.5672 29.5545 33.7592 26.4512 35.1149C25.8562 35.375 25.4712 35.5442 24.875 35.62ZM24.875 18.7034V12.4174C25.582 12.5492 26.4127 12.8339 27.689 13.2714L28.3575 13.5C31.8657 14.7005 33.6192 15.3002 34.059 15.9279C34.4907 16.5415 34.5 18.3405 34.5 21.9094L24.875 18.7034Z" fill="white"/>
<defs>
<linearGradient id="paint0_linear_72_769" x1="0" y1="48" x2="48" y2="0" gradientUnits="userSpaceOnUse">
<stop/>
<stop offset="1" stop-color="#8B8B8B"/>
</linearGradient>
</defs>
</svg>
