<svg width="384" height="275" viewBox="0 0 384 275" fill="none" xmlns="http://www.w3.org/2000/svg">
<mask id="path-1-inside-1_1_95" fill="white">
<path fill-rule="evenodd" clip-rule="evenodd" d="M68 13.5C68 6.04416 61.9558 0 54.5 0H32C16.9151 0 9.37258 0 4.68629 4.68629C0 9.37258 0 16.9151 0 32V243C0 258.085 0 265.627 4.68629 270.314C9.37258 275 16.9151 275 32 275H54.5C61.9558 275 68 268.956 68 261.5C68 254.044 74.0442 248 81.5 248H302.5C309.956 248 316 254.044 316 261.5C316 268.956 322.044 275 329.5 275H352C367.085 275 374.627 275 379.314 270.314C384 265.627 384 258.085 384 243V32C384 16.9151 384 9.37258 379.314 4.68629C374.627 0 367.085 0 352 0H329.5C322.044 0 316 6.04416 316 13.5C316 20.9558 309.956 27 302.5 27H81.5C74.0442 27 68 20.9558 68 13.5Z"/>
</mask>
<path fill-rule="evenodd" clip-rule="evenodd" d="M68 13.5C68 6.04416 61.9558 0 54.5 0H32C16.9151 0 9.37258 0 4.68629 4.68629C0 9.37258 0 16.9151 0 32V243C0 258.085 0 265.627 4.68629 270.314C9.37258 275 16.9151 275 32 275H54.5C61.9558 275 68 268.956 68 261.5C68 254.044 74.0442 248 81.5 248H302.5C309.956 248 316 254.044 316 261.5C316 268.956 322.044 275 329.5 275H352C367.085 275 374.627 275 379.314 270.314C384 265.627 384 258.085 384 243V32C384 16.9151 384 9.37258 379.314 4.68629C374.627 0 367.085 0 352 0H329.5C322.044 0 316 6.04416 316 13.5C316 20.9558 309.956 27 302.5 27H81.5C74.0442 27 68 20.9558 68 13.5Z" fill="white" fill-opacity="0.2"/>
<path d="M4.68629 270.314L3.97918 271.021L3.97919 271.021L4.68629 270.314ZM379.314 270.314L380.021 271.021L380.021 271.021L379.314 270.314ZM379.314 4.68629L380.021 3.97919L380.021 3.97918L379.314 4.68629ZM54.5 -1H32V1H54.5V-1ZM32 -1C24.4858 -1 18.7495 -1.00212 14.3104 -0.405296C9.84249 0.195399 6.5391 1.41927 3.97918 3.97918L5.3934 5.3934C7.51978 3.26702 10.3308 2.14775 14.5769 1.57687C18.8518 1.00212 24.4293 1 32 1V-1ZM3.97918 3.97918C1.41927 6.5391 0.195399 9.84249 -0.405296 14.3104C-1.00212 18.7495 -1 24.4858 -1 32H1C1 24.4293 1.00212 18.8518 1.57687 14.5769C2.14775 10.3308 3.26702 7.51978 5.3934 5.3934L3.97918 3.97918ZM-1 32V243H1V32H-1ZM-1 243C-1 250.514 -1.00212 256.25 -0.405296 260.69C0.195399 265.158 1.41927 268.461 3.97918 271.021L5.3934 269.607C3.26702 267.48 2.14775 264.669 1.57687 260.423C1.00212 256.148 1 250.571 1 243H-1ZM3.97919 271.021C6.5391 273.581 9.84249 274.805 14.3104 275.405C18.7495 276.002 24.4858 276 32 276V274C24.4293 274 18.8518 273.998 14.5769 273.423C10.3308 272.852 7.51977 271.733 5.3934 269.607L3.97919 271.021ZM32 276H54.5V274H32V276ZM81.5 249H302.5V247H81.5V249ZM329.5 276H352V274H329.5V276ZM352 276C359.514 276 365.25 276.002 369.69 275.405C374.158 274.805 377.461 273.581 380.021 271.021L378.607 269.607C376.48 271.733 373.669 272.852 369.423 273.423C365.148 273.998 359.571 274 352 274V276ZM380.021 271.021C382.581 268.461 383.805 265.158 384.405 260.69C385.002 256.25 385 250.514 385 243H383C383 250.571 382.998 256.148 382.423 260.423C381.852 264.669 380.733 267.48 378.607 269.607L380.021 271.021ZM385 243V32H383V243H385ZM385 32C385 24.4858 385.002 18.7495 384.405 14.3104C383.805 9.84249 382.581 6.5391 380.021 3.97919L378.607 5.3934C380.733 7.51977 381.852 10.3308 382.423 14.5769C382.998 18.8518 383 24.4293 383 32H385ZM380.021 3.97918C377.461 1.41927 374.158 0.195399 369.69 -0.405296C365.25 -1.00212 359.514 -1 352 -1V1C359.571 1 365.148 1.00212 369.423 1.57687C373.669 2.14775 376.48 3.26702 378.607 5.3934L380.021 3.97918ZM352 -1H329.5V1H352V-1ZM302.5 26H81.5V28H302.5V26ZM329.5 -1C321.492 -1 315 5.49187 315 13.5H317C317 6.59644 322.596 1 329.5 1V-1ZM302.5 249C309.404 249 315 254.596 315 261.5H317C317 253.492 310.508 247 302.5 247V249ZM81.5 26C74.5964 26 69 20.4036 69 13.5H67C67 21.5081 73.4919 28 81.5 28V26ZM69 261.5C69 254.596 74.5964 249 81.5 249V247C73.4919 247 67 253.492 67 261.5H69ZM315 13.5C315 20.4036 309.404 26 302.5 26V28C310.508 28 317 21.5081 317 13.5H315ZM54.5 276C62.5081 276 69 269.508 69 261.5H67C67 268.404 61.4036 274 54.5 274V276ZM315 261.5C315 269.508 321.492 276 329.5 276V274C322.596 274 317 268.404 317 261.5H315ZM54.5 1C61.4036 1 67 6.59644 67 13.5H69C69 5.49187 62.5081 -1 54.5 -1V1Z" fill="white" fill-opacity="0.5" mask="url(#path-1-inside-1_1_95)"/>
</svg>
