<svg width="42" height="42" viewBox="0 0 42 42" fill="none" xmlns="http://www.w3.org/2000/svg">
<path d="M20.0497 5.05909V0.5H22.9223V5.05909V5.34711L23.1715 5.49161L35.727 12.7735V27.2714V27.5755L35.9971 27.7153L40.3208 29.9549L38.9904 32.4515L34.5749 30.1645L34.3314 30.0384L34.0942 30.1759L23.1715 36.5084L22.9223 36.6528V36.9409V41.5H20.0497V36.9409V36.6528L19.8005 36.5084L8.78298 30.1205L8.56967 29.9969L8.34169 30.0908L2.75834 32.3916L1.65723 29.7902L6.93548 27.6153L7.24499 27.4878V27.153V12.7716L19.8005 5.49164L20.0497 5.34715V5.05909ZM19.2989 32.9443L20.0497 33.3798V32.5118V22.092V21.804L19.8006 21.6595L10.8704 16.4801L10.1195 16.0446V16.9126V27.3325V27.6205L10.3687 27.765L19.2989 32.9443Z" fill="url(#paint0_linear_12_130)" stroke="url(#paint1_linear_12_130)"/>
<defs>
<linearGradient id="paint0_linear_12_130" x1="41.2595" y1="7" x2="13.0778" y2="45.2825" gradientUnits="userSpaceOnUse">
<stop stop-color="#873BFF" stop-opacity="0.5"/>
<stop offset="1" stop-color="white" stop-opacity="0.5"/>
</linearGradient>
<linearGradient id="paint1_linear_12_130" x1="0.740049" y1="42" x2="35.8575" y2="-4.11384" gradientUnits="userSpaceOnUse">
<stop stop-color="#C7A4FF"/>
<stop offset="1" stop-color="#873BFF"/>
</linearGradient>
</defs>
</svg>
