<svg width="42" height="42" viewBox="0 0 42 42" fill="none" xmlns="http://www.w3.org/2000/svg">
<g clip-path="url(#clip0_12_136)">
<path d="M0.5 0.5H10.6615C12.7134 0.501618 14.6808 1.31744 16.1317 2.76834C17.5826 4.21928 18.3984 6.18674 18.4 8.23868V18.4H8.23868C6.18674 18.3984 4.21928 17.5826 2.76834 16.1317C1.31744 14.6808 0.501618 12.7134 0.5 10.6615V0.5ZM23.6 8.23868C23.6016 6.18674 24.4174 4.21928 25.8683 2.76834C27.3192 1.31744 29.2866 0.501618 31.3385 0.5H41.5V10.6613C41.4984 12.7133 40.6826 14.6807 39.2317 16.1317C37.7807 17.5826 35.8133 18.3984 33.7613 18.4H23.6V8.23868ZM0.5 31.3385C0.501618 29.2866 1.31744 27.3192 2.76834 25.8683C4.21928 24.4174 6.18674 23.6016 8.23868 23.6H18.4V33.7613C18.3984 35.8133 17.5826 37.7807 16.1317 39.2317C14.6807 40.6826 12.7133 41.4984 10.6613 41.5H0.5V31.3385ZM23.6 23.6H33.7613C35.8133 23.6016 37.7807 24.4174 39.2317 25.8683C40.6826 27.3193 41.4984 29.2867 41.5 31.3387V41.5H31.3387C29.2867 41.4984 27.3193 40.6826 25.8683 39.2317C24.4174 37.7807 23.6016 35.8133 23.6 33.7613V23.6Z" fill="url(#paint0_linear_12_136)" stroke="url(#paint1_linear_12_136)"/>
</g>
<defs>
<linearGradient id="paint0_linear_12_136" x1="42.2725" y1="7" x2="14.5261" y2="46.5756" gradientUnits="userSpaceOnUse">
<stop stop-color="#873BFF" stop-opacity="0.5"/>
<stop offset="1" stop-color="white" stop-opacity="0.5"/>
</linearGradient>
<linearGradient id="paint1_linear_12_136" x1="-0.272948" y1="42" x2="34.3539" y2="-5.74314" gradientUnits="userSpaceOnUse">
<stop stop-color="#C7A4FF"/>
<stop offset="1" stop-color="#873BFF"/>
</linearGradient>
<clipPath id="clip0_12_136">
<rect width="42" height="42" fill="white"/>
</clipPath>
</defs>
</svg>
