<svg width="42" height="42" viewBox="0 0 42 42" fill="none" xmlns="http://www.w3.org/2000/svg">
<mask id="path-1-inside-1_1_173" fill="white">
<path d="M17.6683 27.3H24.3317L23.0546 20.5275C23.795 20.1775 24.3784 19.67 24.8048 19.005C25.2313 18.34 25.4438 17.605 25.4423 16.8C25.4423 15.645 25.0077 14.6566 24.1385 13.8348C23.2693 13.013 22.2231 12.6014 21 12.6C19.7769 12.5986 18.7315 13.0102 17.8637 13.8348C16.996 14.6594 16.5607 15.6478 16.5577 16.8C16.5577 17.605 16.7709 18.34 17.1974 19.005C17.6239 19.67 18.2065 20.1775 18.9454 20.5275L17.6683 27.3ZM21 42C15.8543 40.775 11.606 37.9834 8.25502 33.6252C4.90404 29.267 3.22929 24.4286 3.23077 19.11V6.3L21 0L38.7692 6.3V19.11C38.7692 24.43 37.0945 29.2691 33.745 33.6273C30.3955 37.9855 26.1472 40.7764 21 42Z"/>
</mask>
<path d="M17.6683 27.3H24.3317L23.0546 20.5275C23.795 20.1775 24.3784 19.67 24.8048 19.005C25.2313 18.34 25.4438 17.605 25.4423 16.8C25.4423 15.645 25.0077 14.6566 24.1385 13.8348C23.2693 13.013 22.2231 12.6014 21 12.6C19.7769 12.5986 18.7315 13.0102 17.8637 13.8348C16.996 14.6594 16.5607 15.6478 16.5577 16.8C16.5577 17.605 16.7709 18.34 17.1974 19.005C17.6239 19.67 18.2065 20.1775 18.9454 20.5275L17.6683 27.3ZM21 42C15.8543 40.775 11.606 37.9834 8.25502 33.6252C4.90404 29.267 3.22929 24.4286 3.23077 19.11V6.3L21 0L38.7692 6.3V19.11C38.7692 24.43 37.0945 29.2691 33.745 33.6273C30.3955 37.9855 26.1472 40.7764 21 42Z" fill="url(#paint0_linear_1_173)" stroke="url(#paint1_linear_1_173)" stroke-width="2" mask="url(#path-1-inside-1_1_173)"/>
<defs>
<linearGradient id="paint0_linear_1_173" x1="38.9998" y1="7" x2="9.99982" y2="42" gradientUnits="userSpaceOnUse">
<stop stop-color="#873BFF" stop-opacity="0.5"/>
<stop offset="1" stop-color="white" stop-opacity="0.5"/>
</linearGradient>
<linearGradient id="paint1_linear_1_173" x1="2.99982" y1="42" x2="38.9998" y2="2.39647e-07" gradientUnits="userSpaceOnUse">
<stop stop-color="#C7A4FF"/>
<stop offset="1" stop-color="#873BFF"/>
</linearGradient>
</defs>
</svg>
