<svg width="42" height="42" viewBox="0 0 42 42" fill="none" xmlns="http://www.w3.org/2000/svg">
<path d="M32.4048 31.0222L31.9654 30.7835C31.9224 30.8627 31.887 30.919 31.845 30.9858C31.8116 31.039 31.774 31.0988 31.7251 31.1819L31.5293 31.5153L31.8027 31.7887L35.5266 35.5127L33.7593 37.2801L30.4186 33.9394L30.0502 33.5711L29.6973 33.9542C29.2953 34.3905 28.8874 34.801 28.4578 35.164C27.7511 35.7611 26.995 36.2728 26.2139 36.686L26.2133 36.6863C25.4193 37.1079 24.5783 37.4341 23.7078 37.658C23.5554 37.6955 23.4022 37.7293 23.2482 37.7595V27.9999V27.4999H22.7482H19.2482H18.7482V27.9999V37.7563C18.5927 37.7272 18.4406 37.695 18.2902 37.6567C17.4307 37.4376 16.5874 37.1093 15.7826 36.6842C14.4712 35.9877 13.293 35.0652 12.3021 33.9593L11.9496 33.5658L11.5761 33.9395L8.23717 37.28L6.46986 35.5127L10.1938 31.7887L10.4661 31.5164L10.2723 31.1836C10.2345 31.1186 10.1945 31.0546 10.1595 30.9986C10.1527 30.9878 10.1462 30.9774 10.1399 30.9673C10.0987 30.9011 10.0639 30.8442 10.0331 30.7875C9.56759 29.926 9.17105 29.0107 8.85082 28.0653L8.85033 28.0639C8.84564 28.0501 8.84073 28.0326 8.83092 27.9954L8.82941 27.9897C8.82106 27.958 8.80839 27.91 8.79209 27.8611L8.67813 27.5192H8.31775H4V25.0192H7.53725H8.10675L8.03305 24.4545C7.92128 23.5982 7.85 22.7351 7.85 21.8749C7.85 21.0221 7.92124 20.1661 8.03299 19.315L8.1072 18.7499H7.53725H4V16.2499H10.073H38V18.7482H34.4628H33.8939L33.9669 19.3123C34.077 20.1641 34.1483 21.0203 34.1483 21.8732C34.1483 22.7332 34.077 23.5946 33.9652 24.4529L33.8916 25.0174H34.461H38V27.5174H33.6788H33.3184L33.2044 27.8593C33.1881 27.9084 33.1754 27.9559 33.1669 27.988L33.1658 27.9922C33.156 28.0289 33.1507 28.0484 33.1451 28.0653C32.8269 29.0112 32.4289 29.9262 31.9649 30.7844L32.4048 31.0222ZM32.4048 31.0222C32.8825 30.1384 33.292 29.1969 33.6193 28.2239L35.8802 35.1591L32.1562 31.4352C32.189 31.3794 32.2229 31.325 32.2567 31.2708C32.3077 31.1889 32.3584 31.1075 32.4048 31.0222ZM12.8035 11.7499C12.8121 11.7385 12.8207 11.7272 12.8295 11.7161L13.1019 11.3674L12.789 11.0546L8.21992 6.48713L9.98731 4.71974L14.6143 9.34506L14.9128 9.64348L15.257 9.39925C15.6566 9.11581 16.0536 8.85794 16.4647 8.64085L16.467 8.63964C17.8616 7.89408 19.4186 7.50402 21 7.50402C22.5807 7.50402 24.137 7.89373 25.5311 8.63863C25.9501 8.86745 26.3547 9.12159 26.7428 9.39963L27.0876 9.6467L27.3876 9.34675L32.0145 4.7198L33.7818 6.48713L29.2128 11.0546L28.9001 11.3671L29.172 11.7157C29.1808 11.727 29.1895 11.7384 29.1982 11.7499H12.8035Z" fill="url(#paint0_linear_1_179)" stroke="url(#paint1_linear_1_179)"/>
<defs>
<linearGradient id="paint0_linear_1_179" x1="38.7271" y1="9.73549" x2="16.1943" y2="42.4955" gradientUnits="userSpaceOnUse">
<stop stop-color="#873BFF" stop-opacity="0.5"/>
<stop offset="1" stop-color="white" stop-opacity="0.5"/>
</linearGradient>
<linearGradient id="paint1_linear_1_179" x1="3.27254" y1="38.3494" x2="31.4091" y2="-1.19427" gradientUnits="userSpaceOnUse">
<stop stop-color="#C7A4FF"/>
<stop offset="1" stop-color="#873BFF"/>
</linearGradient>
</defs>
</svg>
