<svg width="42" height="42" viewBox="0 0 42 42" fill="none" xmlns="http://www.w3.org/2000/svg">
<path d="M19.1249 4.37488C19.1249 3.33941 19.9643 2.5 20.9998 2.5C22.0353 2.5 22.8747 3.33945 22.8747 4.37495L22.8743 24.563C22.8743 25.495 23.6298 26.2505 24.5617 26.2505C24.9414 26.2505 25.2492 26.5582 25.2492 26.9379V29.313C25.2492 29.6926 24.9414 30.0004 24.5618 30.0004C23.6298 30.0004 22.8743 30.7559 22.8744 31.6879L22.8746 37.625C22.8747 38.6605 22.0353 39.5 20.9998 39.5C19.9643 39.5 19.1249 38.6607 19.1249 37.6252L19.1245 31.6878C19.1245 30.7558 18.369 30.0004 17.4371 30.0004C17.0574 30.0004 16.7496 29.6926 16.7496 29.3129V26.9379C16.7496 26.5583 17.0574 26.2505 17.4371 26.2505C18.369 26.2505 19.1245 25.495 19.1245 24.5631L19.1249 4.37488ZM4.87486 4.37492C4.87486 3.33943 5.71429 2.5 6.74978 2.5C7.78526 2.5 8.62469 3.33943 8.62469 4.37492V10.315C8.62469 11.2469 9.38018 12.0024 10.3121 12.0024C10.6918 12.0024 10.9996 12.3102 10.9996 12.6898V15.0625C10.9996 15.4422 10.6918 15.75 10.3121 15.75C9.38018 15.75 8.62469 16.5055 8.62469 17.4374V37.625C8.62469 38.6605 7.78526 39.4999 6.74978 39.4999C5.71429 39.4999 4.87486 38.6605 4.87486 37.625V17.4374C4.87486 16.5055 4.11937 15.75 3.18743 15.75C2.80777 15.75 2.5 15.4422 2.5 15.0625V12.6898C2.5 12.3102 2.80777 12.0024 3.18743 12.0024C4.11937 12.0024 4.87486 11.2469 4.87486 10.315V4.37492ZM33.3715 4.37691C33.3715 3.34051 34.2116 2.50032 35.248 2.50022C36.2846 2.50013 37.125 3.34049 37.1249 4.3771L37.1238 15.0627C37.1237 15.9948 37.8793 16.7504 38.8114 16.7504C39.191 16.7504 39.4988 17.0581 39.4989 17.4378L39.4996 19.8125C39.4998 20.1922 39.192 20.5 38.8124 20.5C37.8805 20.5 37.1251 21.2554 37.1251 22.1873V37.6238C37.1251 38.6599 36.2852 39.4999 35.2491 39.4999C34.2129 39.4999 33.373 38.6599 33.373 37.6238V22.1876C33.373 21.2556 32.6174 20.5 31.6854 20.5C31.3057 20.5 30.9979 20.1923 30.9977 19.8126L30.997 17.4379C30.9969 17.0582 31.3046 16.7504 31.6843 16.7504C32.6161 16.7504 33.3715 15.995 33.3715 15.0632V4.37691Z" fill="url(#paint0_linear_1_192)" stroke="url(#paint1_linear_1_192)"/>
<defs>
<linearGradient id="paint0_linear_1_192" x1="40.2466" y1="8.33334" x2="15.1427" y2="44.1398" gradientUnits="userSpaceOnUse">
<stop stop-color="#873BFF" stop-opacity="0.5"/>
<stop offset="1" stop-color="white" stop-opacity="0.5"/>
</linearGradient>
<linearGradient id="paint1_linear_1_192" x1="1.75305" y1="40" x2="33.0821" y2="-3.19617" gradientUnits="userSpaceOnUse">
<stop stop-color="#C7A4FF"/>
<stop offset="1" stop-color="#873BFF"/>
</linearGradient>
</defs>
</svg>
