<svg width="42" height="42" viewBox="0 0 42 42" fill="none" xmlns="http://www.w3.org/2000/svg">
<path d="M36.25 15.75V16.25H36.75H39.375C40.5508 16.25 41.5 17.1992 41.5 18.375V34.125C41.5 35.3008 40.5508 36.25 39.375 36.25H34.625V27.5625C34.625 26.5645 33.8105 25.75 32.8125 25.75C31.8145 25.75 31 26.5645 31 27.5625V36.25H26.75V27.5625C26.75 26.5645 25.9355 25.75 24.9375 25.75C23.9395 25.75 23.125 26.5645 23.125 27.5625V36.25H18.875V27.5625C18.875 26.5645 18.0605 25.75 17.0625 25.75C16.0645 25.75 15.25 26.5645 15.25 27.5625V36.25H11V27.5625C11 26.5645 10.1855 25.75 9.1875 25.75C8.18948 25.75 7.375 26.5645 7.375 27.5625V36.25H2.625C1.44919 36.25 0.5 35.3008 0.5 34.125V18.375C0.5 17.1992 1.44919 16.25 2.625 16.25H5.25H5.75V15.75V13.125C5.75 11.9492 6.69919 11 7.875 11H10.5H11V10.5V7.875C11 6.69919 11.9492 5.75 13.125 5.75H28.875C30.0508 5.75 31 6.69919 31 7.875V10.5V11H31.5H34.125C35.3008 11 36.25 11.9492 36.25 13.125V15.75Z" fill="url(#paint0_linear_1_198)" stroke="url(#paint1_linear_1_198)"/>
<defs>
<linearGradient id="paint0_linear_1_198" x1="42.2725" y1="10.5" x2="24.0358" y2="45.1821" gradientUnits="userSpaceOnUse">
<stop stop-color="#873BFF" stop-opacity="0.5"/>
<stop offset="1" stop-color="white" stop-opacity="0.5"/>
</linearGradient>
<linearGradient id="paint1_linear_1_198" x1="-0.272948" y1="36.75" x2="22.6637" y2="-5.41634" gradientUnits="userSpaceOnUse">
<stop stop-color="#C7A4FF"/>
<stop offset="1" stop-color="#873BFF"/>
</linearGradient>
</defs>
</svg>
